<?xml version="1.0" encoding="utf-8"?>
<!-- Generator: Adobe Illustrator 21.0.0, SVG Export Plug-In . SVG Version: 6.00 Build 0)  -->
<svg version="1.1" xmlns="http://www.w3.org/2000/svg" xmlns:xlink="http://www.w3.org/1999/xlink" x="0px" y="0px"
	 viewBox="0 0 100 100" enable-background="new 0 0 100 100" xml:space="preserve">
<g id="XMLID_5242_">
	<circle id="XMLID_5254_" fill="#F6D668" cx="50.204" cy="51.035" r="45"/>
	<g id="XMLID_5251_">
		<circle id="XMLID_5253_" fill="#EB6E7A" cx="81.405" cy="58.685" r="12"/>
		<circle id="XMLID_5252_" fill="#EB6E7A" cx="19.004" cy="58.685" r="12"/>
	</g>
	<g id="XMLID_5248_">
		<path id="XMLID_5250_" fill="#8D7328" d="M84.104,33.935c-4.05-4.95-10.05-7.65-16.5-7.65c-0.9,0-1.05-3.3,0-3.3
			c7.35,0,14.25,3.15,19.05,8.85C87.405,32.735,84.704,34.685,84.104,33.935"/>
		<path id="XMLID_5249_" fill="#8D7328" d="M32.655,26.135c-6.3,0-12.45,2.85-16.5,7.65c-0.6,0.75-3.15-1.2-2.55-2.1
			c4.65-5.7,11.7-8.85,19.05-8.85C33.704,22.835,33.554,26.135,32.655,26.135"/>
	</g>
	<circle id="XMLID_5247_" fill="#664D26" cx="50.204" cy="77.285" r="6.75"/>
	<path id="XMLID_5246_" fill="#FFFFFF" d="M46.454,46.685c0,7.5-6,13.5-13.5,13.5c-7.5,0-13.5-6-13.5-13.5c0-7.5,6-13.5,13.5-13.5
		C40.454,33.185,46.454,39.335,46.454,46.685"/>
	<circle id="XMLID_5245_" fill="#664D26" cx="32.954" cy="46.685" r="6.75"/>
	<path id="XMLID_5244_" fill="#FFFFFF" d="M80.954,46.685c0,7.5-6,13.5-13.5,13.5c-7.5,0-13.5-6-13.5-13.5c0-7.5,6-13.5,13.5-13.5
		C74.954,33.185,80.954,39.335,80.954,46.685"/>
	<circle id="XMLID_5243_" fill="#664D26" cx="67.454" cy="46.685" r="6.75"/>
</g>
</svg>
