<?xml version="1.0" encoding="utf-8"?>
<!-- Generator: Adobe Illustrator 21.0.0, SVG Export Plug-In . SVG Version: 6.00 Build 0)  -->
<svg version="1.1" xmlns="http://www.w3.org/2000/svg" xmlns:xlink="http://www.w3.org/1999/xlink" x="0px" y="0px"
	 viewBox="0 0 100 100" enable-background="new 0 0 100 100" xml:space="preserve">
<g id="XMLID_2111_">
	<path id="XMLID_2120_" fill="#F6D668" d="M5,50c0,24.9,20.1,45,45,45c24.9,0,45-20.1,45-45S74.9,5,50,5C25.1,5,5,25.1,5,50z"/>
	<path id="XMLID_2119_" fill="#68A7DB" d="M74.75,26.45c0,14.85,20.25,14.85,20.25,0C95,15.65,84.95,5,84.95,5
		S74.75,15.65,74.75,26.45z"/>
	<g id="XMLID_2116_">
		<circle id="XMLID_2118_" fill="#664D26" cx="67.25" cy="56" r="7.5"/>
		<circle id="XMLID_2117_" fill="#664D26" cx="32.75" cy="56" r="7.5"/>
	</g>
	<g id="XMLID_2113_">
		<path id="XMLID_2115_" fill="#8D7328" d="M40.4,34.85c-4.8,4.05-11.25,5.85-17.55,4.65c-0.9-0.15-1.65,3-0.6,3.3
			c7.2,1.35,14.7-0.75,20.25-5.4C43.25,36.65,41,34.25,40.4,34.85"/>
		<path id="XMLID_2114_" fill="#8D7328" d="M77.15,39.35c-6.3,1.05-12.75-0.6-17.55-4.65c-0.6-0.6-3,1.8-2.1,2.55
			c5.55,4.8,13.05,6.75,20.25,5.4C78.8,42.35,78.05,39.2,77.15,39.35"/>
	</g>
	<path id="XMLID_2112_" fill="#664D26" d="M62,80H38c-2.25,0-2.25-6,0-6h24C64.25,74,64.25,80,62,80"/>
</g>
</svg>
