<?xml version="1.0" encoding="utf-8"?>
<!-- Generator: Adobe Illustrator 21.0.0, SVG Export Plug-In . SVG Version: 6.00 Build 0)  -->
<svg version="1.1" xmlns="http://www.w3.org/2000/svg" xmlns:xlink="http://www.w3.org/1999/xlink" x="0px" y="0px"
	 viewBox="0 0 100 100" enable-background="new 0 0 100 100" xml:space="preserve">
<g id="XMLID_187_">
	<path id="XMLID_193_" fill="#F6D668" d="M95,50c0,24.9-20.1,45-45,45S5,74.9,5,50S25.1,5,50,5S95,25.1,95,50z"/>
	<path id="XMLID_189_" fill="#664D26" d="M75.5,59.15c0-1.2-0.75-2.7-2.7-3.15c-5.25-1.05-12.9-1.95-22.8-1.95S32.45,55.1,27.2,56
		c-2.1,0.45-2.7,1.95-2.7,3.15c0,10.95,8.4,21.9,25.5,21.9C67.1,80.9,75.5,69.95,75.5,59.15"/>
	<path id="XMLID_188_" fill="#FFFFFF" d="M69.05,59.45c-3.3-0.6-10.2-1.5-19.05-1.5c-8.85,0-15.75,0.9-19.05,1.5
		C29,59.75,28.85,60.5,29,61.7c0.15,0.6,0.15,1.5,0.45,2.4c0.15,0.9,0.45,1.35,1.95,1.2c2.85-0.3,34.5-0.3,37.35,0
		c1.5,0.15,1.65-0.3,1.95-1.2c0.15-0.9,0.3-1.65,0.45-2.4C71.15,60.5,71,59.75,69.05,59.45"/>
</g>
</svg>
