<?xml version="1.0" encoding="utf-8"?>
<!-- Generator: Adobe Illustrator 21.0.0, SVG Export Plug-In . SVG Version: 6.00 Build 0)  -->
<svg version="1.1" xmlns="http://www.w3.org/2000/svg" xmlns:xlink="http://www.w3.org/1999/xlink" x="0px" y="0px"
	 viewBox="0 0 100 100" enable-background="new 0 0 100 100" xml:space="preserve">
<g id="XMLID_4799_">
	<circle id="XMLID_4806_" fill="#F6D668" cx="50" cy="50" r="45"/>
	<path id="XMLID_4805_" fill="#E66564" d="M78.35,89H78.2H78.35z"/>
	<ellipse id="XMLID_4804_" fill="#664D26" cx="35" cy="42.5" rx="7.5" ry="9"/>
	<path id="XMLID_4803_" fill="#E66564" d="M94.1,65.9c-1.35-2.7-4.05-4.5-7.5-4.2c-3.45,0.3-6.15,2.1-8.4,5.25
		c-2.25-3-4.95-4.95-8.4-5.1c-3.45-0.15-6.15,1.65-7.5,4.35c-1.35,2.7-1.35,6.3,1.35,10.5C66.35,80.75,77.9,89,78.2,89.3
		c0.3-0.3,11.85-8.7,14.55-12.6C95.45,72.2,95.45,68.6,94.1,65.9"/>
	<g id="XMLID_4800_">
		<path id="XMLID_4802_" fill="#664D26" d="M79.85,47.75C77,41.6,72.8,38.6,68.6,38.6s-8.4,3-11.25,9.15c-0.3,0.6,1.2,1.8,1.95,1.2
			c2.7-2.25,6-3.15,9.3-3.15c3.3,0,6.6,0.9,9.3,3.15C78.65,49.55,80,48.5,79.85,47.75"/>
		<path id="XMLID_4801_" fill="#664D26" d="M61.25,77.6c2.4-2.4-2.7-4.5-2.7-8.85c0-4.35,5.1-6.3,2.7-8.85c-2.85-3-9-0.75-12.9-4.65
			c0,3.3,2.7,6.75,7.8,6.75c0,0-3.45,1.35-3.45,6.75c0,5.4,3.45,6.75,3.45,6.75c-5.1,0-7.8,3.45-7.8,6.75
			C52.25,78.2,58.4,80.45,61.25,77.6"/>
	</g>
</g>
</svg>
