<?xml version="1.0" encoding="utf-8"?>
<!-- Generator: Adobe Illustrator 21.0.0, SVG Export Plug-In . SVG Version: 6.00 Build 0)  -->
<svg version="1.1" xmlns="http://www.w3.org/2000/svg" xmlns:xlink="http://www.w3.org/1999/xlink" x="0px" y="0px"
	 viewBox="0 0 100 100" enable-background="new 0 0 100 100" xml:space="preserve">
<g id="XMLID_41_">
	<path id="XMLID_50_" fill="#F6D668" d="M98.241,50c0,24.911-16.071,45-45,45c-24.911,0-45-20.089-45-45c0-24.911,20.089-45,45-45
		C78.152,5,98.241,25.089,98.241,50z"/>
	<path id="XMLID_49_" fill="#FFFFFF" d="M47.456,40.518c0,8.679-6.911,15.589-15.589,15.589s-15.589-6.911-15.589-15.589
		c0-8.518,6.911-15.589,15.589-15.589S47.456,31.839,47.456,40.518"/>
	<circle id="XMLID_48_" fill="#664D26" cx="37.17" cy="43.893" r="5.143"/>
	<path id="XMLID_47_" fill="#FFFFFF" d="M86.509,40.518c0,8.679-6.911,15.589-15.589,15.589s-15.589-6.911-15.589-15.589
		s6.911-15.589,15.589-15.589C79.438,24.928,86.509,31.839,86.509,40.518"/>
	<g id="XMLID_44_">
		<circle id="XMLID_46_" fill="#664D26" cx="64.009" cy="43.893" r="5.143"/>
		<path id="XMLID_45_" fill="#664D26" d="M72.045,75.714c-2.25-5.786-7.714-9.643-20.411-9.643c-12.857,0-18.161,3.857-20.411,9.643
			c-1.125,3.054,0.482,6.429,0.482,6.429c0.643,1.929,3.375,3.214,19.929,3.214c16.553,0,19.286-1.286,19.928-3.214
			C71.563,82.143,73.331,78.768,72.045,75.714"/>
	</g>
	<path id="XMLID_43_" fill="#FFFFFF" d="M66.135,73.809c0.15-0.326-0.026-0.803-0.357-1.114c0,0-3.31-2.95-14.233-2.603
		c-10.923,0.347-14.039,3.501-14.039,3.501c-0.311,0.331-0.296,0.813-0.286,1.135l0.347,0.793c0.171,0.316,0.502,0.627,0.824,0.617
		l26.665-0.847c0.321-0.01,0.793-0.347,0.783-0.668L66.135,73.809"/>
	<!-- <path id="XMLID_42_" fill="#E29E53" d="M47.777,61.732c-11.732,2.089-25.232,2.893-37.125,1.929
		c-13.982-1.125-9.964-18,1.607-15.429c11.732,2.089,23.625,2.893,35.518,2.089C55.009,50,55.17,60.125,47.777,61.732"/> -->
</g>
</svg>
