<?xml version="1.0" encoding="utf-8"?>
<!-- Generator: Adobe Illustrator 21.0.0, SVG Export Plug-In . SVG Version: 6.00 Build 0)  -->
<svg version="1.1" xmlns="http://www.w3.org/2000/svg" xmlns:xlink="http://www.w3.org/1999/xlink" x="0px" y="0px"
	 viewBox="0 0 100 100" enable-background="new 0 0 100 100" xml:space="preserve">
<g id="XMLID_7430_">
	<path id="XMLID_7441_" fill="#F4AD16" d="M88.924,62.016c0,0,4.648-8.396,4.648-20.989c0-16.492-12.144-35.982-43.478-35.982
		S6.616,24.535,6.616,41.026c0,12.594,4.648,20.989,4.648,20.989c-5.397,6.147-8.696,18.591-4.048,26.687
		c1.949,3.298,21.139,14.992,22.938-5.847h39.58c1.949,20.69,21.139,9.146,22.938,5.847C97.47,80.607,94.172,68.163,88.924,62.016"
		/>
	<path id="XMLID_7440_" fill="#AC8CBF" d="M50.094,11.041c-22.938,0-39.73,11.994-39.73,26.986c0,0,6.147-22.489,39.73-22.489
		s38.231,22.489,38.231,22.489C88.325,23.035,73.032,11.041,50.094,11.041z"/>
	<path id="XMLID_7439_" fill="#F6D668" d="M88.025,65.014c9.295,0,9.295-13.493,0-13.493v-4.498c0,0-52.474-1.349-64.468-19.49
		c2.999,18.291-11.544,23.988-11.544,23.988c-9.295,0-9.295,13.493,0,13.493c0,10.495,10.944,26.987,37.931,26.987
		C76.931,92.001,88.025,75.509,88.025,65.014"/>
	<g id="XMLID_7436_">
		<circle id="XMLID_7438_" fill="#FFFFFF" cx="68.835" cy="56.768" r="9.745"/>
		<circle id="XMLID_7437_" fill="#FFFFFF" cx="31.353" cy="56.768" r="9.745"/>
	</g>
	<circle id="XMLID_7435_" fill="#664D26" cx="68.835" cy="56.768" r="6.747"/>
	<circle id="XMLID_7434_" fill="#221E1F" cx="68.835" cy="56.768" r="2.249"/>
	<circle id="XMLID_7433_" fill="#664D26" cx="31.353" cy="56.768" r="6.747"/>
	<circle id="XMLID_7432_" fill="#221E1F" cx="31.353" cy="56.768" r="2.249"/>
	<path id="XMLID_7431_" fill="#8F7037" d="M62.238,74.16c-7.796,5.397-16.492,5.397-24.288,0c-0.9-0.6-1.799,0.45-1.199,1.499
		c2.399,3.898,7.196,7.346,13.343,7.346c6.147,0,10.945-3.448,13.343-7.346C64.037,74.609,63.137,73.56,62.238,74.16"/>
</g>
</svg>
