<?xml version="1.0" encoding="utf-8"?>
<!-- Generator: Adobe Illustrator 21.0.0, SVG Export Plug-In . SVG Version: 6.00 Build 0)  -->
<svg version="1.1" xmlns="http://www.w3.org/2000/svg" xmlns:xlink="http://www.w3.org/1999/xlink" x="0px" y="0px"
	 viewBox="0 0 100 100" enable-background="new 0 0 100 100" xml:space="preserve">
<g id="XMLID_5119_">
	<path id="XMLID_5133_" fill="#F4B517" d="M50,26.375c-25.393,0-43.393,0.803-43.393,16.071c0,1.286,1.286,22.5,1.286,22.5h84.375
		l1.286-22.5C93.393,30.554,77.964,26.375,50,26.375"/>
	<path id="XMLID_5132_" fill="#F6D668" d="M88.571,58.036c-6.429-2.732-3.054-12.696-3.054-12.696
		c-2.893,1.607-8.839,1.929-16.232,1.446c1.928,1.286,3.214,2.089,3.214,2.089c-7.393,2.732-16.232,1.286-16.232,1.286
		c2.572,1.929,4.179,2.893,4.179,2.893c-24.107,0.804-37.768-8.678-44.678-15.75c-5.786,11.571,0,16.714-4.339,20.732
		c0,0-6.429,0-6.429,8.036c0,8.036,6.429,8.036,6.429,8.036c0,12.857,28.929,24.107,38.572,24.107
		c9.643,0,38.571-11.25,38.571-24.107c0,0,6.429,0,6.429-8.036C95,58.036,88.571,58.036,88.571,58.036"/>
	<path id="XMLID_5131_" fill="#F5F4F4" d="M30.714,56.107c-8.036,0-11.25,2.893-11.25,5.786c0,2.893,0,7.071,10.607,7.071
		c10.286,0,11.893-1.286,11.893-5.625C41.964,60.446,38.75,56.107,30.714,56.107"/>
	<circle id="XMLID_5130_" fill="#664D26" cx="31.518" cy="60.929" r="7.232"/>
	<path id="XMLID_5129_" fill="#221E1F" d="M33.929,60.928c0,1.286-1.125,2.411-2.411,2.411c-1.286,0-2.411-1.125-2.411-2.411
		c0-1.286,1.125-2.411,2.411-2.411C32.804,58.518,33.929,59.643,33.929,60.928"/>
	<path id="XMLID_5128_" fill="#664D26" d="M19.464,61.732c0-11.25,22.5-11.25,22.5,1.607C38.75,53.696,22.679,53.696,19.464,61.732"
		/>
	<path id="XMLID_5127_" fill="#F5F4F4" d="M69.286,56.107c8.036,0,11.25,2.893,11.25,5.786c0,2.893,0,7.071-10.607,7.071
		c-10.286,0-11.893-1.286-11.893-5.625C58.036,60.446,61.25,56.107,69.286,56.107"/>
	<circle id="XMLID_5126_" fill="#664D26" cx="68.482" cy="60.929" r="7.232"/>
	<path id="XMLID_5125_" fill="#221E1F" d="M66.071,60.928c0,1.286,1.125,2.411,2.411,2.411c1.286,0,2.411-1.125,2.411-2.411
		c0-1.286-1.125-2.411-2.411-2.411C67.196,58.518,66.071,59.643,66.071,60.928"/>
	<path id="XMLID_5124_" fill="#664D26" d="M80.536,61.732c0-11.25-22.5-11.25-22.5,1.607C61.25,53.696,77.321,53.696,80.536,61.732"
		/>
	<path id="XMLID_5123_" fill="#8F7037" d="M64.464,80.375c0,5.464-7.232,8.196-14.464,8.196c-7.232,0-14.464-2.732-14.464-8.196
		c0,0,0-1.446,1.446-1.446c6.589,0,19.446,0,26.036,0C64.464,78.929,64.464,80.375,64.464,80.375"/>
	<path id="XMLID_5122_" fill="#454749" d="M93.393,35.857c0,5.143-19.125,11.25-43.393,11.25c-24.268,0-43.393-6.107-43.393-11.25
		H93.393"/>
	<path id="XMLID_5121_" fill="#4383B5" d="M73.625,15.768C67.036,12.875,57.071,1.786,50,1.786
		c-7.072,0-17.036,11.089-23.625,13.982c-5.304,2.411-15.268,3.214-19.286,7.393C2.75,27.821,6.607,36.018,6.607,36.018
		S7.089,40.357,50,40.357c42.911,0,43.393-4.179,43.393-4.179s3.857-8.357-0.482-12.857C88.893,18.982,78.929,18.179,73.625,15.768"
		/>
	<path id="XMLID_5120_" fill="#F2BA68" d="M45.821,15.607C48.232,14.482,50,9.821,50,9.821s1.768,4.661,4.178,5.786
		c2.25,0.964,7.072-3.536,7.072-3.536s-0.482,11.411-1.286,13.661C57.714,31.839,50,35.375,50,35.375s-7.714-3.536-9.964-9.643
		c-0.804-2.25-1.286-13.661-1.286-13.661S43.732,16.571,45.821,15.607"/>
</g>
</svg>
