<?xml version="1.0" encoding="utf-8"?>
<!-- Generator: Adobe Illustrator 21.0.0, SVG Export Plug-In . SVG Version: 6.00 Build 0)  -->
<svg version="1.1" xmlns="http://www.w3.org/2000/svg" xmlns:xlink="http://www.w3.org/1999/xlink" x="0px" y="0px"
	 viewBox="0 0 100 100" enable-background="new 0 0 100 100" xml:space="preserve">
<g id="XMLID_1601_">
	<path id="XMLID_1621_" fill="#D9DCDE" d="M93.3,5.052c2.697,20.077,2.247,36.258-1.798,46.596L54.345,24.08
		C61.686,16.439,76.669,7.299,93.3,5.052z"/>
	<path id="XMLID_1620_" fill="#EEA0A0" d="M88.506,50.3L73.223,30.373c0,0,2.847-10.937,17.38-18.579
		C94.948,29.174,88.506,50.3,88.506,50.3"/>
	<path id="XMLID_1619_" fill="#EC8887" d="M82.662,45.805l-9.439-12.286c0,0,3.896-7.491,12.885-12.286
		C80.864,32.47,82.662,45.805,82.662,45.805"/>
	<path id="XMLID_1618_" fill="#D9DCDE" d="M6.7,5.052C4.003,25.129,4.452,41.31,8.498,51.648L45.655,23.93
		C38.313,16.439,23.331,7.299,6.7,5.052z"/>
	<path id="XMLID_1617_" fill="#EEA0A0" d="M11.494,50.3l15.432-19.927c0,0-2.847-10.937-17.38-18.579
		C5.052,29.174,11.494,50.3,11.494,50.3"/>
	<path id="XMLID_1616_" fill="#EC8887" d="M17.338,45.805l9.589-12.286c0,0-3.896-7.491-12.885-12.286
		C19.136,32.47,17.338,45.805,17.338,45.805"/>
	<path id="XMLID_1615_" fill="#D9DCDE" d="M89.255,78.167c1.199-1.348,2.098-2.397,2.547-3.296c2.397-3.896,3.146-7.941,3.146-7.941
		l-2.997,0.599c0,0,3.446-3.746,2.547-11.686l-2.996,3.146c0,0,2.847-8.091,0.449-15.582l-3.296,2.397c0,0,1.049-2.996,0.15-5.094
		l-1.348,1.049c0,0,2.547-7.042,0.3-9.889c-1.349,4.195-2.847,4.195-2.847,4.195s1.798-3.146,0.449-4.495
		c-1.498,2.397-2.697,0.899-2.697,0.15c0.15-0.899-0.3-2.247,4.045-2.996c-3.446-2.098-7.641-0.599-7.641-0.599
		s0.15-2.247,3.146-2.098c-2.847-2.397-6.742-0.899-6.742-0.899c-6.143-4.645-14.383-7.342-25.62-7.342
		c-11.087,0-19.328,2.697-25.621,7.342c0,0-3.896-1.348-6.742,0.899c2.997-0.15,3.146,2.098,3.146,2.098s-4.045-1.498-7.641,0.599
		c4.345,0.599,4.045,1.948,4.045,2.996c0,0.749-1.199,2.247-2.697-0.15c-1.498,1.348,0.45,4.495,0.45,4.495s-1.498,0-2.847-4.195
		c-2.247,2.996,0.3,9.889,0.3,9.889l-1.348-1.049c-0.899,2.098,0.15,5.094,0.15,5.094l-2.997-2.397
		c-2.547,7.491,0.45,15.582,0.45,15.582l-2.847-3.146C4.602,63.784,8.048,67.53,8.048,67.53l-2.997-0.599
		c0,0,0.749,4.045,3.146,7.941c0.3,0.749,1.199,1.948,2.547,3.296c0,0,0,0,0.15,0.15C17.038,84.46,32.17,94.948,50,94.948
		S82.962,84.46,89.105,78.317C89.105,78.168,89.255,78.168,89.255,78.167"/>
	<g id="XMLID_1611_">
		<path id="XMLID_1614_" fill="#939699" d="M58.54,18.237c-2.697-0.45-5.544-0.599-8.54-0.599c-2.996,0-5.843,0.15-8.54,0.599
			c1.049,5.843,4.195,9.889,8.54,17.38C54.495,27.975,57.491,23.93,58.54,18.237"/>
		<path id="XMLID_1613_" fill="#939699" d="M72.175,22.731c-2.847-1.648-6.143-2.847-9.739-3.746
			c0.899,3.446,2.847,5.843,5.394,10.338C69.777,26.177,71.126,25.279,72.175,22.731"/>
		<path id="XMLID_1612_" fill="#939699" d="M37.564,18.986c-3.746,0.899-6.892,2.098-9.739,3.746
			c1.049,2.697,2.547,3.446,4.345,6.592C34.867,24.679,36.665,22.282,37.564,18.986"/>
	</g>
	<g id="XMLID_1608_">
		<path id="XMLID_1610_" fill="#E66564" d="M93.3,41.01c-0.599-3.146-2.697-5.843-5.993-6.592
			c-3.596-0.899-6.892,0.449-10.038,3.296c-1.798-4.345-4.495-7.641-8.69-9.289c-4.345-1.648-8.69-0.599-11.387,2.397
			c-2.847,3.146-3.896,7.941-0.899,14.383c2.847,5.993,15.282,17.979,15.732,18.279c0.45-0.3,14.383-8.091,17.829-11.836
			C93.15,47.902,93.899,44.157,93.3,41.01"/>
		<path id="XMLID_1609_" fill="#E66564" d="M42.808,30.822c-2.697-2.996-6.892-4.195-11.387-2.397
			c-4.345,1.648-7.042,4.944-8.69,9.289c-3.146-2.847-6.443-4.045-10.039-3.296C9.397,35.167,7.299,37.864,6.7,41.01
			s0.15,6.892,3.446,10.638c3.446,3.746,17.38,11.537,17.829,11.836c0.3-0.3,12.885-12.436,15.732-18.279
			C46.704,38.763,45.655,33.968,42.808,30.822"/>
	</g>
	<g id="XMLID_1605_">
		<path id="XMLID_1607_" fill="#4B5359" d="M55.993,58.99c-1.199-1.348-4.944-1.498-5.993-1.498c-1.049,0-4.794,0.15-5.993,1.498
			c-0.899,1.049-0.15,3.446,2.098,5.693c1.498,1.348,2.847,1.798,3.896,1.798c1.049,0,2.547-0.449,3.896-1.798
			C56.293,62.585,56.892,60.038,55.993,58.99"/>
		<path id="XMLID_1606_" fill="#4B5359" d="M69.478,72.025c0-0.899-0.599-2.098-2.098-2.397c-3.896-0.899-9.889-1.648-17.38-1.648
			c-7.491,0-13.484,0.749-17.38,1.498c-1.498,0.3-2.098,1.498-2.098,2.397c0,8.54,6.443,17.08,19.478,17.08
			S69.478,80.415,69.478,72.025"/>
	</g>
	<path id="XMLID_1604_" fill="#EB6E7A" d="M40.261,83.861c2.847,1.348,5.993,2.098,9.739,2.098c3.746,0,6.892-0.749,9.739-2.098
		c-2.697-1.498-5.993-2.397-9.739-2.397C46.254,81.464,42.958,82.363,40.261,83.861"/>
</g>
</svg>
