<?xml version="1.0" encoding="utf-8"?>
<!-- Generator: Adobe Illustrator 21.0.0, SVG Export Plug-In . SVG Version: 6.00 Build 0)  -->
<svg version="1.1" xmlns="http://www.w3.org/2000/svg" xmlns:xlink="http://www.w3.org/1999/xlink" x="0px" y="0px"
	 viewBox="0 0 100 100" enable-background="new 0 0 100 100" xml:space="preserve">
<g id="XMLID_12516_">
	<path id="XMLID_12537_" fill="#F6D668" d="M21.65,37.25c3.9,4.05,4.35,10.05,1.05,13.5c-3.3,3.45-9.15,2.85-13.05-1.2
		C5.75,45.5,5.3,39.5,8.6,36.05C11.9,32.75,17.75,33.2,21.65,37.25"/>
	<path id="XMLID_12536_" fill="#E84C49" d="M95,96.5H5c0-51.9,20.1-56.85,45-56.85C74.9,39.65,95,44.6,95,96.5"/>
	<path id="XMLID_12535_" fill="#F6D668" d="M83.3,30.65c0,20.4-3.75,36.9-33.3,36.9c-29.55,0-33.3-16.65-33.3-36.9
		C16.7,24.05,83.3,24.05,83.3,30.65"/>
	<path id="XMLID_12534_" fill="#FFFFFF" d="M41.3,39.8c0,5.1-4.05,9.3-9,9.3s-9-4.2-9-9.3s4.05-9.3,9-9.3S41.3,34.7,41.3,39.8"/>
	<path id="XMLID_12533_" fill="#197E9C" d="M39.05,39.8c0,3.9-3,6.9-6.75,6.9s-6.75-3.15-6.75-6.9c0-3.9,3-6.9,6.75-6.9
		C36.05,32.75,39.05,35.9,39.05,39.8"/>
	<path id="XMLID_12532_" fill="#221E1F" d="M34.55,39.8c0,1.35-1.05,2.25-2.25,2.25c-1.2,0-2.25-1.05-2.25-2.25
		c0-1.35,1.05-2.4,2.25-2.4C33.5,37.4,34.55,38.45,34.55,39.8"/>
	<ellipse id="XMLID_12531_" fill="#FFFFFF" cx="67.7" cy="39.8" rx="9" ry="9.3"/>
	<path id="XMLID_12530_" fill="#197E9C" d="M74.45,39.8c0,3.9-3,6.9-6.75,6.9s-6.75-3.15-6.75-6.9c0-3.9,3-6.9,6.75-6.9
		S74.45,35.9,74.45,39.8"/>
	<path id="XMLID_12529_" fill="#221E1F" d="M69.95,39.8c0,1.35-1.05,2.25-2.25,2.25S65.45,41,65.45,39.8c0-1.35,1.05-2.4,2.25-2.4
		S69.95,38.45,69.95,39.8"/>
	<path id="XMLID_12528_" fill="#E1E8EB" d="M87.95,62.3c0,27.45-16.5,32.55-36.75,32.55c-20.4,0-36.75-5.1-36.75-32.55
		c0-15.45,16.5-16.05,36.75-16.05C71.45,46.25,87.95,46.85,87.95,62.3"/>
	<ellipse id="XMLID_12527_" fill="#664D26" cx="50" cy="57.2" rx="5.25" ry="5.4"/>
	<g id="XMLID_12524_">
		<path id="XMLID_12526_" fill="#FFFFFF" d="M75.95,36.05c-4.5-0.3,9.15,11.1-12.3,9.45c-7.5-0.6-13.8,4.95-13.8,9.75
			C49.85,61.1,56,65.6,65.3,65.6c10.95,0,18.9-6.75,20.55-16.35C86.6,45.2,83.45,36.8,75.95,36.05"/>
		<path id="XMLID_12525_" fill="#FFFFFF" d="M36.2,45.65c-21.3,1.65-7.8-9.9-12.3-9.45c-7.5,0.6-10.65,9-9.9,13.2
			c1.5,9.6,9.45,16.35,20.55,16.35c9.3,0,15.45-4.5,15.45-10.35C50,50.45,43.7,45.05,36.2,45.65"/>
	</g>
	<g id="XMLID_12521_">
		<path id="XMLID_12523_" fill="#E29E53" d="M66.2,47.75c0.45,1.65-1.05,3.45-3.3,4.05c-2.25,0.6-4.35-0.3-4.8-1.8
			c-0.45-1.5,1.05-3.45,3.3-4.05S65.9,46.1,66.2,47.75"/>
		<path id="XMLID_12522_" fill="#E29E53" d="M33.95,47.75C33.5,49.4,35,51.2,37.25,51.8s4.35-0.3,4.8-1.8
			c0.45-1.65-1.05-3.45-3.3-4.05C36.5,45.35,34.25,46.1,33.95,47.75"/>
	</g>
	<ellipse id="XMLID_12520_" fill="#F6BC68" cx="50" cy="46.55" rx="11.25" ry="7.8"/>
	<path id="XMLID_12519_" fill="#FFFFFF" d="M92,28.4c0,3.15-1.8,5.85-6,5.85H14c-4.2,0-6-2.55-6-5.85c0-3.15,1.8-5.85,6-5.85h72
		C90.2,22.7,92,25.25,92,28.4"/>
	<path id="XMLID_12518_" fill="#E84C49" d="M66.2,27.2c-26.25-5.25-50.55-4.65-50.55-4.65c0-10.8,19.05-19.05,39.3-19.05
		c21.3,0,36.75,11.25,39,30.75c2.85,23.85-17.7,39.45-15.3,34.2C90.8,41,76.25,29.3,66.2,27.2"/>
	<ellipse id="XMLID_12517_" fill="#FFFFFF" cx="73.85" cy="75.2" rx="10.05" ry="10.35"/>
</g>
</svg>
