<?xml version="1.0" encoding="utf-8"?>
<!-- Generator: Adobe Illustrator 21.0.0, SVG Export Plug-In . SVG Version: 6.00 Build 0)  -->
<svg version="1.1" xmlns="http://www.w3.org/2000/svg" xmlns:xlink="http://www.w3.org/1999/xlink" x="0px" y="0px"
	 viewBox="0 0 100 100" enable-background="new 0 0 100 100" xml:space="preserve">
<g id="XMLID_6073_">
	<circle id="XMLID_6086_" fill="#E66564" cx="50" cy="50" r="45"/>
	<g id="XMLID_6083_">
		<path id="XMLID_6085_" fill="#F6D668" d="M27.05,17.45C18.65,13.4,13.25,5.3,13.25,5.3C11,26.9,19.7,32.15,24.8,32.3
			C31.4,32.3,36.65,22.1,27.05,17.45"/>
		<path id="XMLID_6084_" fill="#F6D668" d="M72.95,17.45c8.4-4.05,13.8-12.15,13.8-12.15C89,26.9,80.3,32.15,75.2,32.3
			C68.6,32.3,63.35,22.1,72.95,17.45"/>
	</g>
	<path id="XMLID_6082_" fill="#483B2F" d="M27.95,66.95C31.7,69.2,35.3,70.4,38.9,71.3c3.6,0.9,7.35,1.2,11.1,1.2
		s7.35-0.45,11.1-1.2c3.6-0.9,7.2-2.25,10.95-4.35c-1.65,4.05-5.1,7.35-9,9.3c-4.05,2.1-8.55,3-12.9,3c-4.5,0-9-1.05-12.9-3
		C33.05,74.3,29.6,71,27.95,66.95"/>
	<path id="XMLID_6081_" fill="#FFFFFF" d="M80.45,42.2c3,6.45,0.15,14.1-6.3,17.1c-6.45,3-14.1,0.15-17.1-6.3
		C54.8,48.2,78.2,37.25,80.45,42.2"/>
	<g id="XMLID_6078_">
		<path id="XMLID_6080_" fill="#483B2F" d="M76.7,43.85c2.1,4.35,0.15,9.6-4.2,11.55c-4.35,2.1-9.6,0.15-11.55-4.2
			C59.45,48.5,75.35,41.15,76.7,43.85"/>
		<path id="XMLID_6079_" fill="#483B2F" d="M82.85,42.65C80,42.95,77.6,43.4,75.05,44c-2.4,0.6-4.65,1.5-6.9,2.55
			c-2.25,1.05-4.35,2.25-6.3,3.6c-2.1,1.5-3.9,3.15-6,5.1c0.3-2.85,1.65-5.55,3.6-7.65c1.8-2.25,4.35-3.9,6.9-5.1
			c2.7-1.2,5.55-1.95,8.4-1.95C77.6,40.4,80.45,41.15,82.85,42.65"/>
	</g>
	<path id="XMLID_6077_" fill="#FFFFFF" d="M19.55,42.2c-3,6.45-0.15,14.1,6.3,17.1c6.45,3,14.1,0.15,17.1-6.3
		C45.2,48.2,21.8,37.25,19.55,42.2"/>
	<g id="XMLID_6074_">
		<path id="XMLID_6076_" fill="#483B2F" d="M23.3,43.85c-2.1,4.35-0.15,9.6,4.2,11.55c4.35,2.1,9.6,0.15,11.55-4.2
			C40.55,48.5,24.65,41.15,23.3,43.85"/>
		<path id="XMLID_6075_" fill="#483B2F" d="M17.15,42.65c2.4-1.5,5.25-2.25,8.1-2.1c2.85,0,5.7,0.75,8.4,1.95
			c2.55,1.2,4.95,3,6.9,5.1c1.8,2.25,3.3,4.8,3.6,7.65c-1.95-1.95-3.9-3.6-6-5.1c-2.1-1.5-4.2-2.7-6.3-3.6
			c-2.25-1.05-4.5-1.8-6.9-2.55C22.4,43.25,20,42.95,17.15,42.65"/>
	</g>
</g>
</svg>
